{
  "asset": {
    "version": "2.0",
    "generator": "UGTS-KC Two Hands 3.0 reference exporter"
  },
  "scene": 0,
  "scenes": [
    {
      "name": "KC Two Hands Scene",
      "nodes": [
        0,
        1,
        2,
        3,
        4,
        5,
        6,
        7,
        8,
        9,
        10,
        11,
        12,
        13,
        14,
        15,
        16,
        17,
        18,
        19,
        20,
        21,
        22,
        23,
        24,
        25,
        26,
        27,
        28,
        29,
        30,
        31,
        32,
        33,
        34,
        35,
        36,
        37,
        38,
        39,
        40,
        41,
        42,
        43,
        44,
        45,
        46,
        47,
        48,
        49,
        50,
        51,
        52,
        53,
        54,
        55,
        56,
        57,
        58,
        59,
        60,
        61,
        62,
        63,
        64,
        65
      ]
    }
  ],
  "nodes": [
    {
      "name": "arena_floor",
      "matrix": [
        1.0,
        0.0,
        0.0,
        0.0,
        0.0,
        1.0,
        0.0,
        0.0,
        0.0,
        0.0,
        1.0,
        0.0,
        0.0,
        0.0,
        0.0,
        1.0
      ],
      "extras": {
        "tags": [],
        "layer": "default",
        "lineage": [],
        "visible": true
      },
      "mesh": 1
    },
    {
      "name": "crystal_00",
      "matrix": [
        0.38,
        0.0,
        0.0,
        0.0,
        0.0,
        0.58,
        0.0,
        0.0,
        0.0,
        0.0,
        0.38,
        0.0,
        0.0,
        0.75,
        6.5,
        1.0
      ],
      "extras": {
        "tags": [
          "collectible"
        ],
        "layer": "default",
        "lineage": [],
        "visible": true
      },
      "mesh": 3
    },
    {
      "name": "crystal_01",
      "matrix": [
        0.38,
        0.0,
        0.0,
        0.0,
        0.0,
        0.58,
        0.0,
        0.0,
        0.0,
        0.0,
        0.38,
        0.0,
        2.295539490878473,
        0.9351236166577372,
        5.45,
        1.0
      ],
      "extras": {
        "tags": [
          "collectible"
        ],
        "layer": "default",
        "lineage": [],
        "visible": true
      },
      "mesh": 3
    },
    {
      "name": "crystal_02",
      "matrix": [
        0.38,
        0.0,
        0.0,
        0.0,
        0.0,
        0.58,
        0.0,
        0.0,
        0.0,
        0.0,
        0.38,
        0.0,
        3.1986355297328166,
        0.95004543390165,
        4.4,
        1.0
      ],
      "extras": {
        "tags": [
          "collectible"
        ],
        "layer": "default",
        "lineage": [],
        "visible": true
      },
      "mesh": 3
    },
    {
      "name": "crystal_03",
      "matrix": [
        0.38,
        0.0,
        0.0,
        0.0,
        0.0,
        0.58,
        0.0,
        0.0,
        0.0,
        0.0,
        0.38,
        0.0,
        2.161482177763682,
        0.7810464017731708,
        3.3499999999999996,
        1.0
      ],
      "extras": {
        "tags": [
          "collectible"
        ],
        "layer": "default",
        "lineage": [],
        "visible": true
      },
      "mesh": 3
    },
    {
      "name": "crystal_04",
      "matrix": [
        0.38,
        0.0,
        0.0,
        0.0,
        0.0,
        0.58,
        0.0,
        0.0,
        0.0,
        0.0,
        0.38,
        0.0,
        -0.18679725896825627,
        0.5835034510322558,
        2.3,
        1.0
      ],
      "extras": {
        "tags": [
          "collectible"
        ],
        "layer": "default",
        "lineage": [],
        "visible": true
      },
      "mesh": 3
    },
    {
      "name": "crystal_05",
      "matrix": [
        0.38,
        0.0,
        0.0,
        0.0,
        0.0,
        0.58,
        0.0,
        0.0,
        0.0,
        0.0,
        0.38,
        0.0,
        -2.4217679849853706,
        0.5390366595741095,
        1.25,
        1.0
      ],
      "extras": {
        "tags": [
          "collectible"
        ],
        "layer": "default",
        "lineage": [],
        "visible": true
      },
      "mesh": 3
    },
    {
      "name": "crystal_06",
      "matrix": [
        0.38,
        0.0,
        0.0,
        0.0,
        0.0,
        0.58,
        0.0,
        0.0,
        0.0,
        0.0,
        0.38,
        0.0,
        -3.18772674827469,
        0.6885285903962363,
        0.1999999999999993,
        1.0
      ],
      "extras": {
        "tags": [
          "collectible"
        ],
        "layer": "default",
        "lineage": [],
        "visible": true
      },
      "mesh": 3
    },
    {
      "name": "crystal_07",
      "matrix": [
        0.38,
        0.0,
        0.0,
        0.0,
        0.0,
        0.58,
        0.0,
        0.0,
        0.0,
        0.0,
        0.38,
        0.0,
        -2.0200532411914267,
        0.8945370517181336,
        -0.8500000000000005,
        1.0
      ],
      "extras": {
        "tags": [
          "collectible"
        ],
        "layer": "default",
        "lineage": [],
        "visible": true
      },
      "mesh": 3
    },
    {
      "name": "crystal_08",
      "matrix": [
        0.38,
        0.0,
        0.0,
        0.0,
        0.0,
        0.58,
        0.0,
        0.0,
        0.0,
        0.0,
        0.38,
        0.0,
        0.37295745552157966,
        0.9676588142571441,
        -1.9000000000000004,
        1.0
      ],
      "extras": {
        "tags": [
          "collectible"
        ],
        "layer": "default",
        "lineage": [],
        "visible": true
      },
      "mesh": 3
    },
    {
      "name": "crystal_09",
      "matrix": [
        0.38,
        0.0,
        0.0,
        0.0,
        0.0,
        0.58,
        0.0,
        0.0,
        0.0,
        0.0,
        0.38,
        0.0,
        2.53973716431729,
        0.8406660667531864,
        -2.950000000000001,
        1.0
      ],
      "extras": {
        "tags": [
          "collectible"
        ],
        "layer": "default",
        "lineage": [],
        "visible": true
      },
      "mesh": 3
    },
    {
      "name": "crystal_10",
      "matrix": [
        0.38,
        0.0,
        0.0,
        0.0,
        0.0,
        0.58,
        0.0,
        0.0,
        0.0,
        0.0,
        0.38,
        0.0,
        3.165946389194822,
        0.6303153556043386,
        -4.0,
        1.0
      ],
      "extras": {
        "tags": [
          "collectible"
        ],
        "layer": "default",
        "lineage": [],
        "visible": true
      },
      "mesh": 3
    },
    {
      "name": "crystal_11",
      "matrix": [
        0.38,
        0.0,
        0.0,
        0.0,
        0.0,
        0.58,
        0.0,
        0.0,
        0.0,
        0.0,
        0.38,
        0.0,
        1.8717350172536376,
        0.5300021545588453,
        -5.050000000000001,
        1.0
      ],
      "extras": {
        "tags": [
          "collectible"
        ],
        "layer": "default",
        "lineage": [],
        "visible": true
      },
      "mesh": 3
    },
    {
      "name": "goal_portal",
      "matrix": [
        1.6,
        0.0,
        0.0,
        0.0,
        0.0,
        3.0,
        0.0,
        0.0,
        0.0,
        0.0,
        0.55,
        0.0,
        0.0,
        1.6,
        -9.5,
        1.0
      ],
      "extras": {
        "tags": [
          "goal"
        ],
        "layer": "default",
        "lineage": [],
        "visible": true
      },
      "mesh": 3
    },
    {
      "name": "hazard_0",
      "matrix": [
        0.9,
        0.0,
        0.0,
        0.0,
        0.0,
        1.0,
        0.0,
        0.0,
        0.0,
        0.0,
        0.9,
        0.0,
        -6.5,
        0.0,
        -4.6,
        1.0
      ],
      "extras": {
        "tags": [
          "hazard"
        ],
        "layer": "default",
        "lineage": [],
        "visible": true
      },
      "mesh": 2
    },
    {
      "name": "hazard_1",
      "matrix": [
        0.9,
        0.0,
        0.0,
        0.0,
        0.0,
        1.0,
        0.0,
        0.0,
        0.0,
        0.0,
        0.9,
        0.0,
        -3.2,
        0.0,
        -4.6,
        1.0
      ],
      "extras": {
        "tags": [
          "hazard"
        ],
        "layer": "default",
        "lineage": [],
        "visible": true
      },
      "mesh": 2
    },
    {
      "name": "hazard_2",
      "matrix": [
        0.9,
        0.0,
        0.0,
        0.0,
        0.0,
        1.0,
        0.0,
        0.0,
        0.0,
        0.0,
        0.9,
        0.0,
        3.2,
        0.0,
        -4.6,
        1.0
      ],
      "extras": {
        "tags": [
          "hazard"
        ],
        "layer": "default",
        "lineage": [],
        "visible": true
      },
      "mesh": 2
    },
    {
      "name": "hazard_3",
      "matrix": [
        0.9,
        0.0,
        0.0,
        0.0,
        0.0,
        1.0,
        0.0,
        0.0,
        0.0,
        0.0,
        0.9,
        0.0,
        6.5,
        0.0,
        -4.6,
        1.0
      ],
      "extras": {
        "tags": [
          "hazard"
        ],
        "layer": "default",
        "lineage": [],
        "visible": true
      },
      "mesh": 2
    },
    {
      "name": "hazard_4",
      "matrix": [
        0.9,
        0.0,
        0.0,
        0.0,
        0.0,
        1.0,
        0.0,
        0.0,
        0.0,
        0.0,
        0.9,
        0.0,
        -1.8,
        0.0,
        3.2,
        1.0
      ],
      "extras": {
        "tags": [
          "hazard"
        ],
        "layer": "default",
        "lineage": [],
        "visible": true
      },
      "mesh": 2
    },
    {
      "name": "hazard_5",
      "matrix": [
        0.9,
        0.0,
        0.0,
        0.0,
        0.0,
        1.0,
        0.0,
        0.0,
        0.0,
        0.0,
        0.9,
        0.0,
        1.8,
        0.0,
        3.2,
        1.0
      ],
      "extras": {
        "tags": [
          "hazard"
        ],
        "layer": "default",
        "lineage": [],
        "visible": true
      },
      "mesh": 2
    },
    {
      "name": "helix_00",
      "matrix": [
        0.42,
        0.0,
        0.0,
        0.0,
        0.0,
        0.42,
        0.0,
        0.0,
        0.0,
        0.0,
        0.42,
        0.0,
        6.4,
        1.0,
        0.0,
        1.0
      ],
      "extras": {
        "tags": [
          "decorative"
        ],
        "layer": "default",
        "lineage": [],
        "visible": true
      },
      "mesh": 0
    },
    {
      "name": "helix_01",
      "matrix": [
        0.49669409145610177,
        0.02413795546596733,
        -0.05208011730517282,
        0.0,
        -0.018438113148901467,
        0.49669409145610177,
        0.05436005423199917,
        0.0,
        0.05436005423199917,
        -0.05208011730517282,
        0.4943001576829341,
        0.0,
        6.576911647776982,
        1.42,
        2.1369681347463607,
        1.0
      ],
      "extras": {
        "tags": [
          "decorative"
        ],
        "layer": "default",
        "lineage": [],
        "visible": true
      },
      "mesh": 0
    },
    {
      "name": "helix_02",
      "matrix": [
        0.5647550111867496,
        0.061922420144330616,
        -0.11669357832770075,
        0.0,
        -0.035637956673209396,
        0.5647550111867496,
        0.12720736371614924,
        0.0,
        0.12720736371614924,
        -0.11669357832770075,
        0.5537155365288787,
        0.0,
        5.815505226929958,
        1.8399999999999999,
        4.225211869202082,
        1.0
      ],
      "extras": {
        "tags": [
          "decorative"
        ],
        "layer": "default",
        "lineage": [],
        "visible": true
      },
      "mesh": 0
    },
    {
      "name": "helix_03",
      "matrix": [
        0.39541591601137627,
        0.07308861256580315,
        -0.12126132144294866,
        0.0,
        -0.030702260861279532,
        0.39541591601137627,
        0.13821586212475806,
        0.0,
        0.13821586212475806,
        -0.12126132144294866,
        0.37761364829547633,
        0.0,
        4.1677310029573755,
        2.26,
        5.736389601857723,
        1.0
      ],
      "extras": {
        "tags": [
          "decorative"
        ],
        "layer": "default",
        "lineage": [],
        "visible": true
      },
      "mesh": 0
    },
    {
      "name": "helix_04",
      "matrix": [
        0.44871752626734696,
        0.1241964705492975,
        -0.1822849920416112,
        0.0,
        -0.03577841238955091,
        0.44871752626734696,
        0.21765221530550982,
        0.0,
        0.21765221530550982,
        -0.1822849920416112,
        0.41158194184025343,
        0.0,
        2.0605223890495847,
        2.6799999999999997,
        6.341635834758929,
        1.0
      ],
      "extras": {
        "tags": [
          "decorative"
        ],
        "layer": "default",
        "lineage": [],
        "visible": true
      },
      "mesh": 0
    },
    {
      "name": "helix_05",
      "matrix": [
        0.48876918628810606,
        0.1902683052432362,
        -0.2475937288283557,
        0.0,
        -0.0329737988434191,
        0.48876918628810606,
        0.3105115313882825,
        0.0,
        0.3105115313882825,
        -0.2475937288283557,
        0.4227054936001829,
        0.0,
        3.7470355344776624e-16,
        3.1,
        6.119373417848305,
        1.0
      ],
      "extras": {
        "tags": [
          "decorative"
        ],
        "layer": "default",
        "lineage": [],
        "visible": true
      },
      "mesh": 0
    },
    {
      "name": "helix_06",
      "matrix": [
        0.3270226735726356,
        0.17263121298453668,
        -0.1991347163929307,
        0.0,
        -0.012325477764942914,
        0.3270226735726356,
        0.2632570104807682,
        0.0,
        0.2632570104807682,
        -0.1991347163929307,
        0.2596942647804062,
        0.0,
        -1.762243383550647,
        3.52,
        5.423627450049844,
        1.0
      ],
      "extras": {
        "tags": [
          "decorative"
        ],
        "layer": "default",
        "lineage": [],
        "visible": true
      },
      "mesh": 0
    },
    {
      "name": "helix_07",
      "matrix": [
        0.3533863378930264,
        0.24764171812060295,
        -0.2525701400340736,
        0.0,
        0.005140457925903147,
        0.3533863378930264,
        0.35368301045267597,
        0.0,
        0.35368301045267597,
        -0.2525701400340736,
        0.2472178239534939,
        0.0,
        -3.2998486892503935,
        3.94,
        4.5418520761747425,
        1.0
      ],
      "extras": {
        "tags": [
          "decorative"
        ],
        "layer": "default",
        "lineage": [],
        "visible": true
      },
      "mesh": 0
    },
    {
      "name": "helix_08",
      "matrix": [
        0.3647715897293818,
        0.3356717157978908,
        -0.3011082638181815,
        0.0,
        0.03541175018593369,
        0.3647715897293818,
        0.4495416502117113,
        0.0,
        0.4495416502117113,
        -0.3011082638181815,
        0.20891653401617546,
        0.0,
        -4.769144413583148,
        4.359999999999999,
        3.4649862386673456,
        1.0
      ],
      "extras": {
        "tags": [
          "decorative"
        ],
        "layer": "default",
        "lineage": [],
        "visible": true
      },
      "mesh": 0
    },
    {
      "name": "helix_09",
      "matrix": [
        0.22972910711462985,
        0.27692881323426816,
        -0.2166448008722451,
        0.0,
        0.051124450361197595,
        0.22972910711462985,
        0.3478661063104314,
        0.0,
        0.3478661063104314,
        -0.2166448008722451,
        0.0919467364045342,
        0.0,
        -6.099554479984966,
        4.779999999999999,
        1.9818653887927786,
        1.0
      ],
      "extras": {
        "tags": [
          "decorative"
        ],
        "layer": "default",
        "lineage": [],
        "visible": true
      },
      "mesh": 0
    },
    {
      "name": "helix_10",
      "matrix": [
        0.23148148148148157,
        0.36756424496943574,
        -0.2476143161272933,
        0.0,
        0.09539871799352709,
        0.23148148148148157,
        0.4327995013124784,
        0.0,
        0.4327995013124784,
        -0.2476143161272933,
        0.037037037037037146,
        0.0,
        -6.925589278975032,
        1.0,
        8.481400742705999e-16,
        1.0
      ],
      "extras": {
        "tags": [
          "decorative"
        ],
        "layer": "default",
        "lineage": [],
        "visible": true
      },
      "mesh": 0
    },
    {
      "name": "helix_11",
      "matrix": [
        0.21979207959302444,
        0.46643660558585925,
        -0.26557171294720955,
        0.0,
        0.15461153304685707,
        0.21979207959302444,
        0.5139909684002961,
        0.0,
        0.5139909684002961,
        -0.26557171294720955,
        -0.04104813863271642,
        0.0,
        -6.83860477470866,
        1.42,
        -2.2219973860552362,
        1.0
      ],
      "extras": {
        "tags": [
          "decorative"
        ],
        "layer": "default",
        "lineage": [],
        "visible": true
      },
      "mesh": 0
    },
    {
      "name": "helix_12",
      "matrix": [
        0.12474394460209512,
        0.36324589737493695,
        -0.16997460494258027,
        0.0,
        0.1458162671042094,
        0.12474394460209512,
        0.37359947073423877,
        0.0,
        0.37359947073423877,
        -0.16997460494258027,
        -0.08906216447914637,
        0.0,
        -5.73081679601382,
        1.8399999999999999,
        -4.163682122511462,
        1.0
      ],
      "extras": {
        "tags": [
          "decorative"
        ],
        "layer": "default",
        "lineage": [],
        "visible": true
      },
      "mesh": 0
    },
    {
      "name": "helix_13",
      "matrix": [
        0.10957662506993643,
        0.45782250503705996,
        -0.16849782526749096,
        0.0,
        0.21532124484235998,
        0.10957662506993643,
        0.4377553252192589,
        0.0,
        0.4377553252192589,
        -0.16849782526749096,
        -0.17314374987941994,
        0.0,
        -3.9118746638075326,
        2.26,
        -5.384233562413936,
        1.0
      ],
      "extras": {
        "tags": [
          "decorative"
        ],
        "layer": "default",
        "lineage": [],
        "visible": true
      },
      "mesh": 0
    },
    {
      "name": "helix_14",
      "matrix": [
        0.08543429734149262,
        0.5540579349029106,
        -0.14873058061100802,
        0.0,
        0.2986415524393435,
        0.08543429734149262,
        0.4898103755479096,
        0.0,
        0.4898103755479096,
        -0.14873058061100802,
        -0.2726994873422541,
        0.0,
        -1.887110140781602,
        2.6799999999999997,
        -5.807927813120008,
        1.0
      ],
      "extras": {
        "tags": [
          "decorative"
        ],
        "layer": "default",
        "lineage": [],
        "visible": true
      },
      "mesh": 0
    },
    {
      "name": "helix_15",
      "matrix": [
        0.03495258157681208,
        0.4127664673617096,
        -0.06929762234630424,
        0.0,
        0.25110839198861434,
        0.03495258157681208,
        0.33484756608643385,
        0.0,
        0.33484756608643385,
        -0.06929762234630424,
        -0.24387485935032394,
        0.0,
        -1.0463829355807226e-15,
        3.1,
        -5.696243392022664,
        1.0
      ],
      "extras": {
        "tags": [
          "decorative"
        ],
        "layer": "default",
        "lineage": [],
        "visible": true
      },
      "mesh": 0
    },
    {
      "name": "helix_16",
      "matrix": [
        0.014245436695615898,
        0.49874137535251395,
        -0.03246703012032462,
        0.0,
        0.3387664924136655,
        0.014245436695615898,
        0.3674701772267964,
        0.0,
        0.3674701772267964,
        -0.03246703012032462,
        -0.33750786776617947,
        0.0,
        1.7356427169426814,
        3.52,
        -5.341759016352623,
        1.0
      ],
      "extras": {
        "tags": [
          "decorative"
        ],
        "layer": "default",
        "lineage": [],
        "visible": true
      },
      "mesh": 0
    },
    {
      "name": "helix_17",
      "matrix": [
        -0.00901351364533983,
        0.5794353972740421,
        0.023945290928244062,
        0.0,
        0.436105143493785,
        -0.00901351364533983,
        0.3822709253788868,
        0.0,
        0.3822709253788868,
        0.023945290928244062,
        -0.4355405407678272,
        0.0,
        3.471160111897758,
        3.94,
        -4.7776420210767725,
        1.0
      ],
      "extras": {
        "tags": [
          "decorative"
        ],
        "layer": "default",
        "lineage": [],
        "visible": true
      },
      "mesh": 0
    },
    {
      "name": "helix_18",
      "matrix": [
        -0.020071636453240237,
        0.4146956851005233,
        0.06343987838179227,
        0.0,
        0.34404851568092537,
        -0.020071636453240237,
        0.24005780193078718,
        0.0,
        0.24005780193078718,
        0.06343987838179227,
        -0.3387442007814487,
        0.0,
        5.19947005728332,
        4.359999999999999,
        -3.777636119706804,
        1.0
      ],
      "extras": {
        "tags": [
          "decorative"
        ],
        "layer": "default",
        "lineage": [],
        "visible": true
      },
      "mesh": 0
    },
    {
      "name": "helix_19",
      "matrix": [
        -0.03373112849313897,
        0.48140107611186456,
        0.13082513095318604,
        0.0,
        0.4388250074969957,
        -0.03373112849313897,
        0.23726530249035815,
        0.0,
        0.23726530249035815,
        0.13082513095318604,
        -0.42022608360886027,
        0.0,
        6.596200652650002,
        4.779999999999999,
        -2.1432355123503384,
        1.0
      ],
      "extras": {
        "tags": [
          "decorative"
        ],
        "layer": "default",
        "lineage": [],
        "visible": true
      },
      "mesh": 0
    },
    {
      "name": "helix_20",
      "matrix": [
        -0.04296296296296289,
        0.537037037037037,
        0.21481481481481474,
        0.0,
        0.537037037037037,
        -0.04296296296296289,
        0.21481481481481485,
        0.0,
        0.21481481481481485,
        0.21481481481481474,
        -0.49407407407407405,
        0.0,
        7.1924858845558965,
        1.0,
        -1.7616509632867797e-15,
        1.0
      ],
      "extras": {
        "tags": [
          "decorative"
        ],
        "layer": "default",
        "lineage": [],
        "visible": true
      },
      "mesh": 0
    },
    {
      "name": "helix_21",
      "matrix": [
        -0.028334147934236737,
        0.36861300629747645,
        0.19930285409190077,
        0.0,
        0.4043769039339662,
        -0.028334147934236737,
        0.10989311000067634,
        0.0,
        0.10989311000067634,
        0.19930285409190077,
        -0.3529899102314426,
        0.0,
        6.730244132204555,
        1.42,
        2.1867888790092023,
        1.0
      ],
      "extras": {
        "tags": [
          "decorative"
        ],
        "layer": "default",
        "lineage": [],
        "visible": true
      },
      "mesh": 0
    },
    {
      "name": "helix_22",
      "matrix": [
        -0.023894805301476474,
        0.40958156628681597,
        0.2857830975366512,
        0.0,
        0.49368533940538484,
        -0.023894805301476474,
        0.07552366474022912,
        0.0,
        0.07552366474022912,
        0.2857830975366512,
        -0.4032669056922008,
        0.0,
        5.373891085531095,
        1.8399999999999999,
        3.9043604145072246,
        1.0
      ],
      "extras": {
        "tags": [
          "decorative"
        ],
        "layer": "default",
        "lineage": [],
        "visible": true
      },
      "mesh": 0
    },
    {
      "name": "helix_23",
      "matrix": [
        -0.00901351364533983,
        0.4361051434937851,
        0.38227092537888674,
        0.0,
        0.5794353972740421,
        -0.00901351364533983,
        0.023945290928244156,
        0.0,
        0.023945290928244156,
        0.38227092537888674,
        -0.4355405407678272,
        0.0,
        3.582164859197235,
        2.26,
        4.930426948346238,
        1.0
      ],
      "extras": {
        "tags": [
          "decorative"
        ],
        "layer": "default",
        "lineage": [],
        "visible": true
      },
      "mesh": 0
    },
    {
      "name": "helix_24",
      "matrix": [
        0.011966166824317354,
        0.28456385362747905,
        0.3086749488705089,
        0.0,
        0.41894275529611164,
        0.011966166824317354,
        -0.027272305301072608,
        0.0,
        -0.027272305301072608,
        0.3086749488705089,
        -0.28350660892359075,
        0.0,
        1.75829012638075,
        2.6799999999999997,
        5.411460575539825,
        1.0
      ],
      "extras": {
        "tags": [
          "decorative"
        ],
        "layer": "default",
        "lineage": [],
        "visible": true
      },
      "mesh": 0
    },
    {
      "name": "helix_25",
      "matrix": [
        0.041610216162871416,
        0.29893856189120765,
        0.39862805486480224,
        0.0,
        0.491388651621083,
        0.041610216162871416,
        -0.08249716945988594,
        0.0,
        -0.08249716945988594,
        0.39862805486480224,
        -0.2903272135122906,
        0.0,
        1.7204754256834659e-15,
        3.1,
        5.619499195625474,
        1.0
      ],
      "extras": {
        "tags": [
          "decorative"
        ],
        "layer": "default",
        "lineage": [],
        "visible": true
      },
      "mesh": 0
    },
    {
      "name": "helix_26",
      "matrix": [
        0.08543429734149242,
        0.2986415524393437,
        0.4898103755479097,
        0.0,
        0.5540579349029108,
        0.08543429734149242,
        -0.14873058061100794,
        0.0,
        -0.14873058061100794,
        0.4898103755479097,
        -0.27269948734225447,
        0.0,
        -1.8281858672962168,
        3.52,
        5.626577546674035,
        1.0
      ],
      "extras": {
        "tags": [
          "decorative"
        ],
        "layer": "default",
        "lineage": [],
        "visible": true
      },
      "mesh": 0
    },
    {
      "name": "helix_27",
      "matrix": [
        0.0920443650587466,
        0.18086984566758244,
        0.3677144731841774,
        0.0,
        0.38457090423113033,
        0.0920443650587466,
        -0.1415381732246923,
        0.0,
        -0.1415381732246923,
        0.3677144731841774,
        -0.14544074989871275,
        0.0,
        -3.7855357844908597,
        3.94,
        5.210343013069884,
        1.0
      ],
      "extras": {
        "tags": [
          "decorative"
        ],
        "layer": "default",
        "lineage": [],
        "visible": true
      },
      "mesh": 0
    },
    {
      "name": "helix_28",
      "matrix": [
        0.14850469595487514,
        0.1735907941716779,
        0.4447612746836175,
        0.0,
        0.4324355921130202,
        0.14850469595487514,
        -0.20235072016973832,
        0.0,
        -0.20235072016973832,
        0.4447612746836175,
        -0.10602638628469807,
        0.0,
        -5.619084890544126,
        4.359999999999999,
        4.082504141452659,
        1.0
      ],
      "extras": {
        "tags": [
          "decorative"
        ],
        "layer": "default",
        "lineage": [],
        "visible": true
      },
      "mesh": 0
    },
    {
      "name": "helix_29",
      "matrix": [
        0.2197920795930243,
        0.1546115330468572,
        0.5139909684002961,
        0.0,
        0.4664366055858594,
        0.2197920795930243,
        -0.26557171294720944,
        0.0,
        -0.26557171294720944,
        0.5139909684002961,
        -0.041048138632716676,
        0.0,
        -6.8421032718323085,
        4.779999999999999,
        2.2231341166779313,
        1.0
      ],
      "extras": {
        "tags": [
          "decorative"
        ],
        "layer": "default",
        "lineage": [],
        "visible": true
      },
      "mesh": 0
    },
    {
      "name": "helix_30",
      "matrix": [
        0.19444444444444436,
        0.08013492311456284,
        0.36355158110248187,
        0.0,
        0.3087539657743261,
        0.19444444444444436,
        -0.2079960255469263,
        0.0,
        -0.2079960255469263,
        0.36355158110248187,
        0.031111111111111017,
        0.0,
        -7.069324510828845,
        1.0,
        2.5972276902961418e-15,
        1.0
      ],
      "extras": {
        "tags": [
          "decorative"
        ],
        "layer": "default",
        "lineage": [],
        "visible": true
      },
      "mesh": 0
    },
    {
      "name": "helix_31",
      "matrix": [
        0.2734870322793212,
        0.060862440906187615,
        0.41412631703622793,
        0.0,
        0.32967715861222413,
        0.2734870322793212,
        -0.2579104772288633,
        0.0,
        -0.2579104772288633,
        0.41412631703622793,
        0.10946040048158828,
        0.0,
        -6.305164339941013,
        1.42,
        -2.048672082032185,
        1.0
      ],
      "extras": {
        "tags": [
          "decorative"
        ],
        "layer": "default",
        "lineage": [],
        "visible": true
      },
      "mesh": 0
    },
    {
      "name": "helix_32",
      "matrix": [
        0.3647715897293817,
        0.03541175018593372,
        0.44954165021171133,
        0.0,
        0.33567171579789085,
        0.3647715897293817,
        -0.30110826381818145,
        0.0,
        -0.30110826381818145,
        0.44954165021171133,
        0.20891653401617535,
        0.0,
        -4.920405320915201,
        1.8399999999999999,
        -3.5748837206687556,
        1.0
      ],
      "extras": {
        "tags": [
          "decorative"
        ],
        "layer": "default",
        "lineage": [],
        "visible": true
      },
      "mesh": 0
    },
    {
      "name": "helix_33",
      "matrix": [
        0.2968445238301422,
        0.004317984657758643,
        0.2970937287802479,
        0.0,
        0.20801904322130652,
        0.2968445238301422,
        -0.2121589176286218,
        0.0,
        -0.2121589176286218,
        0.2970937287802479,
        0.20766297212093482,
        0.0,
        -3.3408832683974894,
        2.26,
        -4.598331329026943,
        1.0
      ],
      "extras": {
        "tags": [
          "decorative"
        ],
        "layer": "default",
        "lineage": [],
        "visible": true
      },
      "mesh": 0
    },
    {
      "name": "helix_34",
      "matrix": [
        0.38931270663408996,
        -0.014673187815408203,
        0.31340120295329565,
        0.0,
        0.20551334879111516,
        0.38931270663408996,
        -0.23706513856301284,
        0.0,
        -0.23706513856301284,
        0.31340120295329565,
        0.309159839024293,
        0.0,
        -1.7374669761260544,
        2.6799999999999997,
        -5.347373508808818,
        1.0
      ],
      "extras": {
        "tags": [
          "decorative"
        ],
        "layer": "default",
        "lineage": [],
        "visible": true
      },
      "mesh": 0
    },
    {
      "name": "helix_35",
      "matrix": [
        0.48876918628810595,
        -0.0329737988434191,
        0.3105115313882826,
        0.0,
        0.19026830524323626,
        0.48876918628810595,
        -0.24759372882835576,
        0.0,
        -0.24759372882835576,
        0.3105115313882826,
        0.4227054936001828,
        0.0,
        -2.5404316803817884e-15,
        3.1,
        -5.926913976107901,
        1.0
      ],
      "extras": {
        "tags": [
          "decorative"
        ],
        "layer": "default",
        "lineage": [],
        "visible": true
      },
      "mesh": 0
    },
    {
      "name": "helix_36",
      "matrix": [
        0.37692272206457145,
        -0.030053866407222768,
        0.18282786085662828,
        0.0,
        0.10432503526140993,
        0.37692272206457145,
        -0.15311939331495344,
        0.0,
        -0.15311939331495344,
        0.18282786085662828,
        0.3457288311458128,
        0.0,
        1.9943235132553057,
        3.52,
        -6.137896644547377,
        1.0
      ],
      "extras": {
        "tags": [
          "decorative"
        ],
        "layer": "default",
        "lineage": [],
        "visible": true
      },
      "mesh": 0
    },
    {
      "name": "helix_37",
      "matrix": [
        0.4707332333468765,
        -0.03655031054914232,
        0.1645426930056645,
        0.0,
        0.08701025305452763,
        0.4707332333468765,
        -0.14435871600351036,
        0.0,
        -0.14435871600351036,
        0.1645426930056645,
        0.4495400574946147,
        0.0,
        4.088241418400758,
        3.94,
        -5.626981574808235,
        1.0
      ],
      "extras": {
        "tags": [
          "decorative"
        ],
        "layer": "default",
        "lineage": [],
        "visible": true
      },
      "mesh": 0
    },
    {
      "name": "helix_38",
      "matrix": [
        0.5647550111867496,
        -0.03563795667320941,
        0.12720736371614938,
        0.0,
        0.06192242014433068,
        0.5647550111867496,
        -0.11669357832770084,
        0.0,
        -0.11669357832770084,
        0.12720736371614938,
        0.5537155365288787,
        0.0,
        5.821456384346379,
        4.359999999999999,
        -4.22953563815597,
        1.0
      ],
      "extras": {
        "tags": [
          "decorative"
        ],
        "layer": "default",
        "lineage": [],
        "visible": true
      },
      "mesh": 0
    },
    {
      "name": "helix_39",
      "matrix": [
        0.41722303682312545,
        -0.015488015045077252,
        0.045662445554879375,
        0.0,
        0.020275882591412595,
        0.41722303682312545,
        -0.04374729853634524,
        0.0,
        -0.04374729853634524,
        0.045662445554879375,
        0.4152121324536646,
        0.0,
        6.716230177068202,
        4.779999999999999,
        -2.182235468963283,
        1.0
      ],
      "extras": {
        "tags": [
          "decorative"
        ],
        "layer": "default",
        "lineage": [],
        "visible": true
      },
      "mesh": 0
    },
    {
      "name": "player",
      "matrix": [
        1.0,
        0.0,
        0.0,
        0.0,
        0.0,
        1.0,
        0.0,
        0.0,
        0.0,
        0.0,
        1.0,
        0.0,
        0.0,
        0.6,
        8.0,
        1.0
      ],
      "extras": {
        "tags": [
          "player"
        ],
        "layer": "default",
        "lineage": [],
        "visible": true
      },
      "mesh": 3
    },
    {
      "name": "signature_monolith",
      "matrix": [
        2.0923243358493377,
        0.0,
        -0.6798373876248844,
        0.0,
        0.0,
        7.6,
        0.0,
        0.0,
        0.3399186938124422,
        0.0,
        1.0461621679246689,
        0.0,
        0.0,
        3.8,
        0.0,
        1.0
      ],
      "extras": {
        "tags": [
          "decorative"
        ],
        "layer": "default",
        "lineage": [],
        "visible": true
      },
      "mesh": 0
    },
    {
      "name": "tower_0",
      "matrix": [
        1.4,
        0.0,
        0.0,
        0.0,
        0.0,
        5.0,
        0.0,
        0.0,
        0.0,
        0.0,
        1.4,
        0.0,
        -9.0,
        2.5,
        -9.0,
        1.0
      ],
      "extras": {
        "tags": [
          "decorative"
        ],
        "layer": "default",
        "lineage": [],
        "visible": true
      },
      "mesh": 0
    },
    {
      "name": "tower_1",
      "matrix": [
        1.4,
        0.0,
        0.0,
        0.0,
        0.0,
        5.0,
        0.0,
        0.0,
        0.0,
        0.0,
        1.4,
        0.0,
        9.0,
        2.5,
        -9.0,
        1.0
      ],
      "extras": {
        "tags": [
          "decorative"
        ],
        "layer": "default",
        "lineage": [],
        "visible": true
      },
      "mesh": 0
    },
    {
      "name": "tower_2",
      "matrix": [
        1.4,
        0.0,
        0.0,
        0.0,
        0.0,
        5.0,
        0.0,
        0.0,
        0.0,
        0.0,
        1.4,
        0.0,
        -9.0,
        2.5,
        9.0,
        1.0
      ],
      "extras": {
        "tags": [
          "decorative"
        ],
        "layer": "default",
        "lineage": [],
        "visible": true
      },
      "mesh": 0
    },
    {
      "name": "tower_3",
      "matrix": [
        1.4,
        0.0,
        0.0,
        0.0,
        0.0,
        5.0,
        0.0,
        0.0,
        0.0,
        0.0,
        1.4,
        0.0,
        9.0,
        2.5,
        9.0,
        1.0
      ],
      "extras": {
        "tags": [
          "decorative"
        ],
        "layer": "default",
        "lineage": [],
        "visible": true
      },
      "mesh": 0
    }
  ],
  "meshes": [
    {
      "name": "cube",
      "primitives": [
        {
          "attributes": {
            "POSITION": 0,
            "NORMAL": 1
          },
          "indices": 2,
          "mode": 4,
          "material": 2
        }
      ],
      "extras": {
        "sourcePattern": null,
        "contentHash": "26228cac21ae2fd949be2036090689bf24e159cf996687e54066ca4b7d0684f9",
        "schemaHash": null
      }
    },
    {
      "name": "floor",
      "primitives": [
        {
          "attributes": {
            "POSITION": 3,
            "NORMAL": 4
          },
          "indices": 5,
          "mode": 4,
          "material": 0
        }
      ],
      "extras": {
        "sourcePattern": null,
        "contentHash": "ae0d4b99d4a63e00734e79d11edc7affb86eaea4a4fb08803703b1d231936300",
        "schemaHash": null
      }
    },
    {
      "name": "pyramid",
      "primitives": [
        {
          "attributes": {
            "POSITION": 6,
            "NORMAL": 7
          },
          "indices": 8,
          "mode": 4,
          "material": 1
        }
      ],
      "extras": {
        "sourcePattern": null,
        "contentHash": "bb6bbef7eb2e6571775ceb37d51bd8623d550007ccb79e66203c6baef1db177b",
        "schemaHash": null
      }
    },
    {
      "name": "sphere",
      "primitives": [
        {
          "attributes": {
            "POSITION": 9,
            "NORMAL": 10
          },
          "indices": 11,
          "mode": 4,
          "material": 3
        }
      ],
      "extras": {
        "sourcePattern": null,
        "contentHash": "eb61057a9e52b124e7444b1e3066f0c22123061edb326926a5fc72db392195ea",
        "schemaHash": null
      }
    }
  ],
  "buffers": [
    {
      "byteLength": 12864,
      "uri": "data:application/octet-stream;base64,"
    }
  ],
  "bufferViews": [
    {
      "buffer": 0,
      "byteOffset": 0,
      "byteLength": 288,
      "target": 34962
    },
    {
      "buffer": 0,
      "byteOffset": 288,
      "byteLength": 288,
      "target": 34962
    },
    {
      "buffer": 0,
      "byteOffset": 576,
      "byteLength": 144,
      "target": 34963
    },
    {
      "buffer": 0,
      "byteOffset": 720,
      "byteLength": 48,
      "target": 34962
    },
    {
      "buffer": 0,
      "byteOffset": 768,
      "byteLength": 48,
      "target": 34962
    },
    {
      "buffer": 0,
      "byteOffset": 816,
      "byteLength": 24,
      "target": 34963
    },
    {
      "buffer": 0,
      "byteOffset": 840,
      "byteLength": 60,
      "target": 34962
    },
    {
      "buffer": 0,
      "byteOffset": 900,
      "byteLength": 60,
      "target": 34962
    },
    {
      "buffer": 0,
      "byteOffset": 960,
      "byteLength": 72,
      "target": 34963
    },
    {
      "buffer": 0,
      "byteOffset": 1032,
      "byteLength": 3276,
      "target": 34962
    },
    {
      "buffer": 0,
      "byteOffset": 4308,
      "byteLength": 3276,
      "target": 34962
    },
    {
      "buffer": 0,
      "byteOffset": 7584,
      "byteLength": 5280,
      "target": 34963
    }
  ],
  "accessors": [
    {
      "bufferView": 0,
      "componentType": 5126,
      "count": 24,
      "type": "VEC3",
      "min": [
        -0.5,
        -0.5,
        -0.5
      ],
      "max": [
        0.5,
        0.5,
        0.5
      ]
    },
    {
      "bufferView": 1,
      "componentType": 5126,
      "count": 24,
      "type": "VEC3"
    },
    {
      "bufferView": 2,
      "componentType": 5125,
      "count": 36,
      "type": "SCALAR",
      "min": [
        0
      ],
      "max": [
        23
      ]
    },
    {
      "bufferView": 3,
      "componentType": 5126,
      "count": 4,
      "type": "VEC3",
      "min": [
        -21.0,
        0,
        -21.0
      ],
      "max": [
        21.0,
        0,
        21.0
      ]
    },
    {
      "bufferView": 4,
      "componentType": 5126,
      "count": 4,
      "type": "VEC3"
    },
    {
      "bufferView": 5,
      "componentType": 5125,
      "count": 6,
      "type": "SCALAR",
      "min": [
        0
      ],
      "max": [
        3
      ]
    },
    {
      "bufferView": 6,
      "componentType": 5126,
      "count": 5,
      "type": "VEC3",
      "min": [
        -0.6,
        0,
        -0.6
      ],
      "max": [
        0.6,
        1.8,
        0.6
      ]
    },
    {
      "bufferView": 7,
      "componentType": 5126,
      "count": 5,
      "type": "VEC3"
    },
    {
      "bufferView": 8,
      "componentType": 5125,
      "count": 18,
      "type": "SCALAR",
      "min": [
        0
      ],
      "max": [
        4
      ]
    },
    {
      "bufferView": 9,
      "componentType": 5126,
      "count": 273,
      "type": "VEC3",
      "min": [
        -0.5,
        -0.5,
        -0.5
      ],
      "max": [
        0.5,
        0.5,
        0.5
      ]
    },
    {
      "bufferView": 10,
      "componentType": 5126,
      "count": 273,
      "type": "VEC3"
    },
    {
      "bufferView": 11,
      "componentType": 5125,
      "count": 1320,
      "type": "SCALAR",
      "min": [
        1
      ],
      "max": [
        271
      ]
    }
  ],
  "extras": {
    "ugtsSchema": "3.9.1",
    "sceneHash": "d5fd40aa3133638bf81dd3d4c07f9fb3d02c0a1d9f5385351a158631819074aa",
    "authorityBoundary": "render asset only; authoritative state remains in UGTS event/lineage records"
  },
  "materials": [
    {
      "name": "grid",
      "pbrMetallicRoughness": {
        "baseColorFactor": [
          0.045,
          0.085,
          0.13,
          1
        ],
        "metallicFactor": 0.1,
        "roughnessFactor": 0.72
      },
      "emissiveFactor": [
        0.003,
        0.012,
        0.02
      ],
      "alphaMode": "OPAQUE",
      "alphaCutoff": 0.5,
      "doubleSided": false
    },
    {
      "name": "hazard",
      "pbrMetallicRoughness": {
        "baseColorFactor": [
          1,
          0.17,
          0.11,
          1
        ],
        "metallicFactor": 0.1,
        "roughnessFactor": 0.32
      },
      "emissiveFactor": [
        0.22,
        0.012,
        0.004
      ],
      "alphaMode": "OPAQUE",
      "alphaCutoff": 0.5,
      "doubleSided": false
    },
    {
      "name": "obsidian",
      "pbrMetallicRoughness": {
        "baseColorFactor": [
          0.035,
          0.055,
          0.09,
          1
        ],
        "metallicFactor": 0.55,
        "roughnessFactor": 0.22
      },
      "emissiveFactor": [
        0.0,
        0.0,
        0.0
      ],
      "alphaMode": "OPAQUE",
      "alphaCutoff": 0.5,
      "doubleSided": false
    },
    {
      "name": "signature_cyan",
      "pbrMetallicRoughness": {
        "baseColorFactor": [
          0.16,
          0.82,
          1,
          1
        ],
        "metallicFactor": 0.24,
        "roughnessFactor": 0.25
      },
      "emissiveFactor": [
        0.025,
        0.18,
        0.26
      ],
      "alphaMode": "OPAQUE",
      "alphaCutoff": 0.5,
      "doubleSided": false
    }
  ]
}
