{
  "asset": {
    "version": "2.0",
    "generator": "UGTS-KC Two Hands 3.0 reference exporter"
  },
  "scene": 0,
  "scenes": [
    {
      "name": "KC Two Hands Scene",
      "nodes": [
        2
      ]
    }
  ],
  "nodes": [
    {
      "name": "gyroid_panel",
      "matrix": [
        0.8,
        0.0,
        0.0,
        0.0,
        0.0,
        0.8,
        0.0,
        0.0,
        0.0,
        0.0,
        0.8,
        0.0,
        2.0,
        -0.1,
        0.0,
        1.0
      ],
      "extras": {
        "tags": [
          "decorative"
        ],
        "layer": "default",
        "lineage": [],
        "visible": true
      },
      "mesh": 1
    },
    {
      "name": "sculpture",
      "matrix": [
        1.6562499999999998,
        0.18749999999999997,
        0.15625,
        0.0,
        -0.21455807515467268,
        1.6293884221669304,
        0.3190494900392144,
        0.0,
        -0.11634064159149979,
        -0.33566574848852393,
        1.6360096990561264,
        0.0,
        0.32499999999999996,
        0.8,
        0.22499999999999998,
        1.0
      ],
      "extras": {
        "tags": [
          "interactive",
          "two_hand"
        ],
        "layer": "default",
        "lineage": [
          "two_hands:transform:0001"
        ],
        "visible": true
      },
      "mesh": 0
    },
    {
      "name": "world",
      "matrix": [
        1.0,
        0.0,
        0.0,
        0.0,
        0.0,
        1.0,
        0.0,
        0.0,
        0.0,
        0.0,
        1.0,
        0.0,
        0.0,
        0.0,
        0.0,
        1.0
      ],
      "extras": {
        "tags": [],
        "layer": "default",
        "lineage": [],
        "visible": true
      },
      "children": [
        0,
        1
      ]
    }
  ],
  "meshes": [
    {
      "name": "gielis_tube_asset",
      "primitives": [
        {
          "attributes": {
            "POSITION": 0,
            "NORMAL": 1,
            "TEXCOORD_0": 2
          },
          "indices": 3,
          "mode": 4,
          "material": 1
        }
      ],
      "extras": {
        "sourcePattern": "M199",
        "contentHash": "5303a1385ba984ab5e357f951fb84ad61faf699a130090334e7a09807d8c2e01",
        "schemaHash": null
      }
    },
    {
      "name": "gyroid_asset",
      "primitives": [
        {
          "attributes": {
            "POSITION": 4,
            "NORMAL": 5
          },
          "indices": 6,
          "mode": 4,
          "material": 0
        }
      ],
      "extras": {
        "sourcePattern": "M225",
        "contentHash": "d353641eed53dc2c80fbaa10d497a04bbac9b06c62a670e311a191b6775b9706",
        "schemaHash": null
      }
    }
  ],
  "buffers": [
    {
      "byteLength": 100352,
      "uri": "data:application/octet-stream;base64,"
    }
  ],
  "bufferViews": [
    {
      "buffer": 0,
      "byteOffset": 0,
      "byteLength": 5880,
      "target": 34962
    },
    {
      "buffer": 0,
      "byteOffset": 5880,
      "byteLength": 5880,
      "target": 34962
    },
    {
      "buffer": 0,
      "byteOffset": 11760,
      "byteLength": 3920,
      "target": 34962
    },
    {
      "buffer": 0,
      "byteOffset": 15680,
      "byteLength": 11520,
      "target": 34963
    },
    {
      "buffer": 0,
      "byteOffset": 27200,
      "byteLength": 30528,
      "target": 34962
    },
    {
      "buffer": 0,
      "byteOffset": 57728,
      "byteLength": 30528,
      "target": 34962
    },
    {
      "buffer": 0,
      "byteOffset": 88256,
      "byteLength": 12096,
      "target": 34963
    }
  ],
  "accessors": [
    {
      "bufferView": 0,
      "componentType": 5126,
      "count": 490,
      "type": "VEC3",
      "min": [
        -0.9921106049064234,
        -0.3049571242899019,
        -1.0887122073650055
      ],
      "max": [
        1.132050247632606,
        0.3046455145883007,
        1.0897087522607813
      ]
    },
    {
      "bufferView": 1,
      "componentType": 5126,
      "count": 490,
      "type": "VEC3"
    },
    {
      "bufferView": 2,
      "componentType": 5126,
      "count": 490,
      "type": "VEC2"
    },
    {
      "bufferView": 3,
      "componentType": 5125,
      "count": 2880,
      "type": "SCALAR",
      "min": [
        0
      ],
      "max": [
        489
      ]
    },
    {
      "bufferView": 4,
      "componentType": 5126,
      "count": 2544,
      "type": "VEC3",
      "min": [
        -0.75,
        -0.75,
        -0.75
      ],
      "max": [
        0.75,
        0.75,
        0.75
      ]
    },
    {
      "bufferView": 5,
      "componentType": 5126,
      "count": 2544,
      "type": "VEC3"
    },
    {
      "bufferView": 6,
      "componentType": 5125,
      "count": 3024,
      "type": "SCALAR",
      "min": [
        0
      ],
      "max": [
        2543
      ]
    }
  ],
  "extras": {
    "ugtsSchema": "3.0.0",
    "sceneHash": "e061c325aaacfa32da19743dc5215067cdbd183ceda9bcfbdc80483b904f0b22",
    "authorityBoundary": "render asset only; authoritative state remains in UGTS event/lineage records"
  },
  "materials": [
    {
      "name": "gold",
      "pbrMetallicRoughness": {
        "baseColorFactor": [
          0.95,
          0.62,
          0.12,
          0.86
        ],
        "metallicFactor": 0.42,
        "roughnessFactor": 0.28
      },
      "emissiveFactor": [
        0.0,
        0.0,
        0.0
      ],
      "alphaMode": "BLEND",
      "alphaCutoff": 0.5,
      "doubleSided": false
    },
    {
      "name": "teal",
      "pbrMetallicRoughness": {
        "baseColorFactor": [
          0.12,
          0.72,
          0.78,
          1.0
        ],
        "metallicFactor": 0.12,
        "roughnessFactor": 0.32
      },
      "emissiveFactor": [
        0.0,
        0.0,
        0.0
      ],
      "alphaMode": "OPAQUE",
      "alphaCutoff": 0.5,
      "doubleSided": false
    }
  ]
}
